<svg width="16" height="16" viewBox="0 0 16 16" fill="none" xmlns="http://www.w3.org/2000/svg">
<path d="M8.00855 4.57143e-06C6.15734 -0.00197362 4.36273 0.638122 2.93063 1.81118C1.49853 2.98425 0.517575 4.61767 0.154975 6.43302C-0.207624 8.24838 0.0705753 10.1333 0.942154 11.7665C1.81373 13.3997 3.22474 14.6801 4.93467 15.3894C6.64459 16.0987 8.5476 16.1931 10.3193 15.6564C12.091 15.1197 13.6218 13.9852 14.6506 12.4462C15.6795 10.9072 16.1428 9.05909 15.9616 7.21677C15.7803 5.37445 14.9658 3.652 13.6567 2.34302C12.916 1.59972 12.0357 1.0101 11.0664 0.608009C10.0971 0.205921 9.05793 -0.000703186 8.00855 4.57143e-06ZM8.00855 0.760767C9.42631 0.759757 10.813 1.17604 11.9958 1.95772C13.1786 2.73941 14.1052 3.85193 14.66 5.1566C15.2149 6.46127 15.3735 7.9004 15.1161 9.29459C14.8587 10.6888 14.1966 11.9764 13.2124 12.9969C13.1924 12.9585 13.1717 12.9218 13.1493 12.8858C13.1269 12.8498 13.1053 12.8131 13.0846 12.7763L13.0334 12.6852C13.0158 12.6549 12.9991 12.6253 12.9807 12.5957C12.9125 12.4844 12.8422 12.3754 12.7697 12.2689C12.6973 12.1623 12.6213 12.0595 12.542 11.9604C12.5284 11.9436 12.5148 11.9277 12.5012 11.9125L12.4596 11.8645C12.3888 11.7788 12.3158 11.6957 12.2407 11.6152C12.1656 11.5348 12.0889 11.4567 12.0105 11.3811L11.9426 11.3147L11.8739 11.25C11.7817 11.1664 11.6872 11.0865 11.5902 11.0103C11.4932 10.9341 11.3942 10.8603 11.2929 10.7889C11.2769 10.7777 11.2594 10.7673 11.2426 10.757L11.1922 10.7258C11.1017 10.6661 11.0095 10.6094 10.9157 10.5556C10.822 10.5018 10.7266 10.4504 10.6297 10.4013L10.5497 10.3606L10.4698 10.3206C10.3652 10.2719 10.2589 10.2255 10.1502 10.1824C10.0415 10.1392 9.93363 10.1025 9.82255 10.0633C9.84892 10.0481 9.87369 10.0314 9.89767 10.0146C9.92164 9.99779 9.94641 9.98021 9.97199 9.96423L10.0367 9.92188L10.1006 9.87872C10.1854 9.81879 10.2685 9.75726 10.3484 9.69173C10.4283 9.6262 10.5082 9.55748 10.5785 9.48476L10.5921 9.47037L10.6057 9.45519C10.6744 9.38566 10.7391 9.31295 10.8007 9.23703C10.8622 9.16111 10.9213 9.0836 10.9781 9.00369L11.0228 8.93976L11.066 8.87503C11.1227 8.78792 11.1763 8.69842 11.2258 8.60732C11.2764 8.51568 11.3222 8.42153 11.3633 8.32523V8.31484V8.30446C11.4024 8.21096 11.4368 8.11427 11.4663 8.01677C11.4959 7.91928 11.5223 7.81939 11.5463 7.7187C11.5526 7.69233 11.5582 7.66596 11.5638 7.63879C11.5694 7.61162 11.5742 7.58605 11.579 7.55888C11.5982 7.45259 11.615 7.34471 11.627 7.23923C11.639 7.12936 11.6451 7.01892 11.6453 6.90839C11.6453 5.94237 11.2616 5.01592 10.5785 4.33284C9.89543 3.64976 8.96898 3.26601 8.00295 3.26601C7.03693 3.26601 6.11048 3.64976 5.4274 4.33284C4.74432 5.01592 4.36057 5.94237 4.36057 6.90839C4.36078 7.01892 4.36692 7.12936 4.37895 7.23923C4.39093 7.34791 4.40692 7.45579 4.42689 7.55888C4.43169 7.58605 4.43728 7.61242 4.44208 7.63879C4.44687 7.66516 4.45327 7.69153 4.45966 7.7187C4.48283 7.81939 4.5092 7.91928 4.53957 8.01677C4.56994 8.11427 4.6035 8.21096 4.64266 8.30446V8.31484V8.32523C4.68367 8.42153 4.72954 8.51568 4.7801 8.60732C4.83045 8.69842 4.88479 8.78792 4.93993 8.87503L4.98308 8.93976L5.02783 9.00369C5.08457 9.0836 5.14291 9.16351 5.20524 9.23623C5.26757 9.30895 5.3315 9.38407 5.40022 9.45359L5.41381 9.46877L5.42739 9.48396C5.50091 9.55668 5.57763 9.6254 5.65754 9.69093C5.73745 9.75646 5.81736 9.81799 5.90527 9.87792L5.96919 9.92108L6.03392 9.96343C6.0595 9.97941 6.08347 9.99699 6.10824 10.0138C6.13301 10.0306 6.15779 10.0473 6.18336 10.0625C6.07228 10.0985 5.9628 10.1384 5.85492 10.1816C5.74704 10.2247 5.64156 10.2711 5.53527 10.3198L5.45536 10.359L5.37545 10.3997C5.27796 10.4488 5.1818 10.5004 5.08697 10.5548C4.99214 10.6091 4.89917 10.6664 4.80807 10.7266L4.75933 10.757C4.74335 10.7665 4.72656 10.7769 4.71138 10.7873C4.60963 10.8576 4.51027 10.932 4.41331 11.0103C4.31635 11.0886 4.22152 11.1685 4.12882 11.25L4.0617 11.3123L4.01295 11.3795C3.93304 11.4567 3.85499 11.5366 3.77881 11.6192C3.70262 11.7018 3.62857 11.7862 3.55665 11.8725C3.54387 11.8877 3.53108 11.9021 3.5183 11.9165C3.50551 11.9309 3.49272 11.9452 3.47994 11.9612C3.40056 12.0614 3.32438 12.1647 3.25139 12.2713C3.1784 12.3778 3.10755 12.4873 3.03882 12.5997C3.02124 12.6285 3.00446 12.6581 2.98768 12.6876L2.93734 12.7763C2.91576 12.8139 2.89418 12.8506 2.87181 12.8874C2.84943 12.9242 2.82865 12.9617 2.80868 13.0001C2.16691 12.3332 1.65836 11.5499 1.31033 10.6922C0.868463 9.59554 0.702315 8.40722 0.826444 7.2314C0.950573 6.05558 1.36119 4.92815 2.02231 3.9479C2.68343 2.96765 3.57488 2.16452 4.61853 1.60886C5.66219 1.05321 6.82619 0.762006 8.00855 0.760767ZM8.00855 9.78443C7.341 9.78504 6.6939 9.55412 6.17754 9.13104C5.66119 8.70796 5.30754 8.1189 5.17688 7.46426C5.04622 6.80962 5.14663 6.12993 5.461 5.54104C5.77538 4.95215 6.28425 4.49051 6.90088 4.23481C7.51752 3.97911 8.20375 3.94517 8.8426 4.13878C9.48146 4.3324 10.0334 4.74158 10.4043 5.29658C10.7753 5.85157 10.9423 6.51804 10.8768 7.18238C10.8114 7.84671 10.5176 8.46779 10.0455 8.93976C9.77841 9.20792 9.46096 9.42065 9.11139 9.56575C8.76182 9.71084 8.38703 9.78463 8.00855 9.78443ZM3.39523 13.5467C3.41601 13.503 3.43705 13.4596 3.45836 13.4164C3.47967 13.3733 3.50151 13.3309 3.52389 13.2894C3.55186 13.2366 3.58063 13.1831 3.60939 13.1295C3.63816 13.076 3.66773 13.0249 3.6981 12.9753C3.72846 12.9258 3.77801 12.857 3.81397 12.7995C3.84993 12.742 3.89388 12.686 3.93544 12.6301L4.03533 12.4918C4.06889 12.4463 4.10325 12.4007 4.13841 12.3576C4.17357 12.3144 4.22871 12.2529 4.27586 12.2026C4.32301 12.1522 4.37096 12.1035 4.4189 12.0547L4.53238 11.9365C4.56994 11.8973 4.61229 11.8565 4.64905 11.8222C4.68581 11.7878 4.75293 11.7327 4.80887 11.6903C4.86481 11.648 4.91755 11.6104 4.9687 11.5657L5.09336 11.4682C5.13491 11.4354 5.17327 11.4042 5.22042 11.3747C5.27796 11.3363 5.33789 11.3004 5.39862 11.2668C5.45936 11.2332 5.52009 11.1997 5.58082 11.1661C5.62557 11.1413 5.66953 11.1158 5.71348 11.0902C5.75743 11.0646 5.80218 11.0406 5.84853 11.0183C5.91406 10.9871 5.98118 10.9599 6.04991 10.9384C6.11863 10.9168 6.18656 10.888 6.25528 10.8632C6.30083 10.8465 6.34558 10.8281 6.39033 10.8105C6.43508 10.7929 6.48063 10.7761 6.52698 10.7617C6.60689 10.7386 6.6868 10.7194 6.76672 10.7026C6.84663 10.6858 6.92654 10.6699 7.00645 10.6547C7.04721 10.6467 7.08636 10.6363 7.12712 10.6275C7.16788 10.6187 7.20703 10.6091 7.24939 10.6027C7.37298 10.5851 7.49791 10.5716 7.62417 10.562C7.75043 10.5524 7.87856 10.5479 8.00855 10.5484C8.13747 10.5484 8.26533 10.5532 8.39213 10.5628C8.51892 10.5724 8.64385 10.5859 8.76691 10.6035C8.80767 10.6091 8.84682 10.6179 8.88598 10.6275C8.92514 10.6371 8.96589 10.6467 9.00425 10.6547C9.08416 10.6707 9.16408 10.6858 9.24878 10.7034C9.33349 10.721 9.40861 10.7402 9.48852 10.7633C9.53407 10.7769 9.57882 10.7937 9.62277 10.8113C9.66672 10.8289 9.71067 10.8465 9.75542 10.8632C9.82495 10.8888 9.89447 10.9128 9.96319 10.9392C10.0319 10.9655 10.0998 10.9927 10.1662 11.0239C10.2117 11.0454 10.2565 11.0702 10.3004 11.095C10.3444 11.1198 10.3883 11.1461 10.4323 11.1701C10.493 11.2037 10.5545 11.2364 10.6153 11.2708C10.676 11.3052 10.7359 11.3403 10.7943 11.3795C10.8382 11.4082 10.8798 11.4402 10.9213 11.473L11.046 11.5705C11.1003 11.612 11.1547 11.6504 11.2058 11.6951C11.257 11.7399 11.3129 11.7806 11.3657 11.827C11.4184 11.8733 11.4456 11.9021 11.4823 11.9412L11.5958 12.0595C11.6437 12.1083 11.6917 12.1578 11.738 12.2074C11.7844 12.2569 11.8315 12.308 11.8755 12.3616C11.9194 12.4151 11.945 12.4495 11.9786 12.495L12.0785 12.6325C12.1192 12.6892 12.1584 12.7452 12.2007 12.8027C12.2431 12.8602 12.2806 12.9186 12.3174 12.9793C12.3542 13.04 12.3765 13.0792 12.4045 13.1303C12.4325 13.1815 12.4596 13.2334 12.4844 13.2854C12.5092 13.3373 12.53 13.3717 12.5523 13.4156C12.5747 13.4596 12.5963 13.5043 12.6171 13.5491C11.9737 14.085 11.2424 14.5055 10.4555 14.7917C8.87166 15.3673 7.13584 15.3673 5.55205 14.7917C4.76667 14.5042 4.03696 14.083 3.39523 13.5467Z" fill="#676879"/>
</svg>
