<svg width="16" height="16" viewBox="0 0 16 16" fill="none" xmlns="http://www.w3.org/2000/svg">
<path fill-rule="evenodd" clip-rule="evenodd" d="M13 0.5C13 0.223858 12.7761 0 12.5 0C12.2239 0 12 0.223858 12 0.5V2H4V0.5C4 0.223858 3.77614 0 3.5 0C3.22386 0 3 0.223858 3 0.5V2H2C0.895431 2 0 2.89543 0 4V5V6V14C0 15.1046 0.895431 16 2 16H14C15.1046 16 16 15.1046 16 14V6V5V4C16 2.89543 15.1046 2 14 2H13V0.5ZM3 3H2C1.44772 3 1 3.44772 1 4V5H15V4C15 3.44772 14.5523 3 14 3H13V3.5C13 3.77614 12.7761 4 12.5 4C12.2239 4 12 3.77614 12 3.5V3H4V3.5C4 3.77614 3.77614 4 3.5 4C3.22386 4 3 3.77614 3 3.5V3ZM15 6V14C15 14.5523 14.5523 15 14 15H2C1.44772 15 1 14.5523 1 14V6H15Z" fill="#676879"/>
</svg>
