<svg width="16" height="16" viewBox="0 0 16 16" fill="none" xmlns="http://www.w3.org/2000/svg">
<path fill-rule="evenodd" clip-rule="evenodd" d="M8.46291 10.2391C8.44364 10.2695 8.42078 10.2984 8.39432 10.325C8.28907 10.4307 8.14847 10.4794 8.01073 10.4708C7.88756 10.4673 7.76544 10.4183 7.67144 10.3239C7.64537 10.2976 7.62277 10.2693 7.60366 10.2393L3.96815 6.58513C3.77335 6.38933 3.77335 6.07188 3.96815 5.87609C4.16295 5.68029 4.47878 5.68029 4.67358 5.87608L7.55955 8.77686L7.55955 0.5C7.55955 0.223858 7.78341 0 8.05955 0C8.33569 0 8.55955 0.223857 8.55955 0.5L8.55955 8.72045L11.3838 5.88177C11.579 5.68551 11.8956 5.68551 12.0909 5.88177C12.2861 6.07804 12.2861 6.39624 12.0909 6.59251L8.46291 10.2391ZM0 10.9718C0 10.6957 0.223858 10.4718 0.5 10.4718C0.776142 10.4718 1 10.6957 1 10.9718V14.9947H15V10.9718C15 10.6957 15.2239 10.4718 15.5 10.4718C15.7761 10.4718 16 10.6957 16 10.9718V15.4973V15.5C16 15.7761 15.7761 16 15.5 16L15.4888 15.9999H0.511159L0.5 16C0.223858 16 0 15.7761 0 15.5V15.4973V10.9718ZM3 12.5C3 12.2239 3.22386 12 3.5 12H12.5C12.7761 12 13 12.2239 13 12.5C13 12.7761 12.7761 13 12.5 13H3.5C3.22386 13 3 12.7761 3 12.5Z" fill="#676879"/>
</svg>
