<svg width="16" height="16" viewBox="0 0 16 16" fill="none" xmlns="http://www.w3.org/2000/svg">
<path fill-rule="evenodd" clip-rule="evenodd" d="M14.3158 14C15.2463 14 16 13.232 16 12.2857V3.71429C16 2.768 15.2463 2 14.3158 2H1.68421C0.754526 2 0 2.768 0 3.71429V12.2857C0 13.232 0.754526 14 1.68421 14H14.3158ZM15 3.91837V12.0816C15 12.5915 14.5933 13 14.098 13H1.902C1.4072 13 1 12.5912 1 12.0816V3.91837C1 3.40883 1.4072 3 1.902 3H14.098C14.5933 3 15 3.40849 15 3.91837Z" fill="#676879"/>
<path d="M3.375 2.625C3.375 2.41789 3.59886 2.25 3.875 2.25C4.15114 2.25 4.375 2.41789 4.375 2.625V13.375C4.375 13.5821 4.15114 13.75 3.875 13.75C3.59886 13.75 3.375 13.5821 3.375 13.375V2.625Z" fill="#676879"/>
</svg>
