<svg width="16" height="16" viewBox="0 0 16 16" fill="none" xmlns="http://www.w3.org/2000/svg">
<mask id="path-1-inside-1" fill="white">
<path fill-rule="evenodd" clip-rule="evenodd" d="M6 1H10V2H6V1ZM5 2V1C5 0.447715 5.44772 0 6 0H10C10.5523 0 11 0.447715 11 1V2H14H15.5C15.7761 2 16 2.22386 16 2.5C16 2.77614 15.7761 3 15.5 3H14V15C14 15.5523 13.5523 16 13 16H3C2.44772 16 2 15.5523 2 15V3H0.5C0.223858 3 0 2.77614 0 2.5C0 2.22386 0.223858 2 0.5 2H2H5ZM11 3H5H3L3 15H13V3H11ZM6 6.5C6 6.22386 6.22386 6 6.5 6C6.77614 6 7 6.22386 7 6.5V11.5C7 11.7761 6.77614 12 6.5 12C6.22386 12 6 11.7761 6 11.5V6.5ZM9.5 6C9.22386 6 9 6.22386 9 6.5V11.5C9 11.7761 9.22386 12 9.5 12C9.77614 12 10 11.7761 10 11.5V6.5C10 6.22386 9.77614 6 9.5 6Z"/>
</mask>
<path fill-rule="evenodd" clip-rule="evenodd" d="M6 1H10V2H6V1ZM5 2V1C5 0.447715 5.44772 0 6 0H10C10.5523 0 11 0.447715 11 1V2H14H15.5C15.7761 2 16 2.22386 16 2.5C16 2.77614 15.7761 3 15.5 3H14V15C14 15.5523 13.5523 16 13 16H3C2.44772 16 2 15.5523 2 15V3H0.5C0.223858 3 0 2.77614 0 2.5C0 2.22386 0.223858 2 0.5 2H2H5ZM11 3H5H3L3 15H13V3H11ZM6 6.5C6 6.22386 6.22386 6 6.5 6C6.77614 6 7 6.22386 7 6.5V11.5C7 11.7761 6.77614 12 6.5 12C6.22386 12 6 11.7761 6 11.5V6.5ZM9.5 6C9.22386 6 9 6.22386 9 6.5V11.5C9 11.7761 9.22386 12 9.5 12C9.77614 12 10 11.7761 10 11.5V6.5C10 6.22386 9.77614 6 9.5 6Z" fill="#676879"/>
<path d="M10 1H11V0H10V1ZM6 1V0H5V1H6ZM10 2V3H11V2H10ZM6 2H5V3H6V2ZM5 2V3H6V2H5ZM11 2H10V3H11V2ZM14 3V2H13V3H14ZM2 3H3V2H2V3ZM3 3V2H2V3H3ZM3 15H2V16H3V15ZM13 15V16H14V15H13ZM13 3H14V2H13V3ZM10 0H6V2H10V0ZM11 2V1H9V2H11ZM6 3H10V1H6V3ZM5 1V2H7V1H5ZM4 1V2H6V1H4ZM6 -1C4.89543 -1 4 -0.10457 4 1H6V1V-1ZM10 -1H6V1H10V-1ZM12 1C12 -0.10457 11.1046 -1 10 -1V1H12ZM12 2V1H10V2H12ZM14 1H11V3H14V1ZM15.5 1H14V3H15.5V1ZM17 2.5C17 1.67157 16.3284 1 15.5 1V3C15.2239 3 15 2.77614 15 2.5H17ZM15.5 4C16.3284 4 17 3.32843 17 2.5H15C15 2.22386 15.2239 2 15.5 2V4ZM14 4H15.5V2H14V4ZM15 15V3H13V15H15ZM13 17C14.1046 17 15 16.1046 15 15H13V17ZM3 17H13V15H3V17ZM1 15C1 16.1046 1.89543 17 3 17V15H3H1ZM1 3V15H3V3H1ZM0.5 4H2V2H0.5V4ZM-1 2.5C-1 3.32843 -0.328427 4 0.5 4V2C0.776142 2 1 2.22386 1 2.5H-1ZM0.5 1C-0.328427 1 -1 1.67157 -1 2.5H1C1 2.77614 0.776142 3 0.5 3V1ZM2 1H0.5V3H2V1ZM5 1H2V3H5V1ZM5 4H11V2H5V4ZM3 4H5V2H3V4ZM4 15L4 3H2L2 15H4ZM13 14H3V16H13V14ZM12 3V15H14V3H12ZM11 4H13V2H11V4ZM6.5 5C5.67157 5 5 5.67157 5 6.5H7C7 6.77614 6.77614 7 6.5 7V5ZM8 6.5C8 5.67157 7.32843 5 6.5 5V7C6.22386 7 6 6.77614 6 6.5H8ZM8 11.5V6.5H6V11.5H8ZM6.5 13C7.32843 13 8 12.3284 8 11.5H6C6 11.2239 6.22386 11 6.5 11V13ZM5 11.5C5 12.3284 5.67157 13 6.5 13V11C6.77614 11 7 11.2239 7 11.5H5ZM5 6.5V11.5H7V6.5H5ZM10 6.5C10 6.77614 9.77614 7 9.5 7V5C8.67157 5 8 5.67157 8 6.5H10ZM10 11.5V6.5H8V11.5H10ZM9.5 11C9.77614 11 10 11.2239 10 11.5H8C8 12.3284 8.67157 13 9.5 13V11ZM9 11.5C9 11.2239 9.22386 11 9.5 11V13C10.3284 13 11 12.3284 11 11.5H9ZM9 6.5V11.5H11V6.5H9ZM9.5 7C9.22386 7 9 6.77614 9 6.5H11C11 5.67157 10.3284 5 9.5 5V7Z" fill="#676879" mask="url(#path-1-inside-1)"/>
</svg>
