<svg width="16" height="16" viewBox="0 0 16 16" fill="none" xmlns="http://www.w3.org/2000/svg">
<path fill-rule="evenodd" clip-rule="evenodd" d="M7.5 3.5C8.32843 3.5 9 2.82843 9 2C9 1.17157 8.32843 0.5 7.5 0.5C6.67157 0.5 6 1.17157 6 2C6 2.82843 6.67157 3.5 7.5 3.5ZM9 8C9 8.82843 8.32843 9.5 7.5 9.5C6.67157 9.5 6 8.82843 6 8C6 7.17157 6.67157 6.5 7.5 6.5C8.32843 6.5 9 7.17157 9 8ZM9 14C9 14.8284 8.32843 15.5 7.5 15.5C6.67157 15.5 6 14.8284 6 14C6 13.1716 6.67157 12.5 7.5 12.5C8.32843 12.5 9 13.1716 9 14Z" fill="#676879"/>
</svg>
