<svg width="16" height="16" viewBox="0 0 16 16" fill="none" xmlns="http://www.w3.org/2000/svg">
<mask id="path-1-inside-1" fill="white">
<path fill-rule="evenodd" clip-rule="evenodd" d="M6.05059 13.4351L2.2339 14.3159C1.87387 14.399 1.55119 14.0763 1.63428 13.7163L2.51505 9.89961L10.6468 1.76788C11.6231 0.791567 13.206 0.791567 14.1823 1.76788C15.1586 2.74419 15.1586 4.3271 14.1823 5.30341L6.05059 13.4351ZM6.05059 12.0209L12.4145 5.65696L10.2932 3.53564L3.92927 9.89961L6.05059 12.0209ZM3.34891 10.7335L2.78856 13.1616L5.21673 12.6013L3.34891 10.7335ZM11.3539 2.47498L11.0003 2.82854L13.1217 4.94986L13.4752 4.5963C14.061 4.01052 14.061 3.06077 13.4752 2.47498C12.8894 1.8892 11.9397 1.8892 11.3539 2.47498Z"/>
</mask>
<path fill-rule="evenodd" clip-rule="evenodd" d="M6.05059 13.4351L2.2339 14.3159C1.87387 14.399 1.55119 14.0763 1.63428 13.7163L2.51505 9.89961L10.6468 1.76788C11.6231 0.791567 13.206 0.791567 14.1823 1.76788C15.1586 2.74419 15.1586 4.3271 14.1823 5.30341L6.05059 13.4351ZM6.05059 12.0209L12.4145 5.65696L10.2932 3.53564L3.92927 9.89961L6.05059 12.0209ZM3.34891 10.7335L2.78856 13.1616L5.21673 12.6013L3.34891 10.7335ZM11.3539 2.47498L11.0003 2.82854L13.1217 4.94986L13.4752 4.5963C14.061 4.01052 14.061 3.06077 13.4752 2.47498C12.8894 1.8892 11.9397 1.8892 11.3539 2.47498Z" fill="#676879"/>
<path d="M12.4145 5.65696L13.1217 6.36407L13.8288 5.65696L13.1217 4.94986L12.4145 5.65696ZM6.05059 12.0209L5.34348 12.728L6.05059 13.4351L6.75769 12.728L6.05059 12.0209ZM10.2932 3.53564L11.0003 2.82854L10.2932 2.12143L9.58612 2.82854L10.2932 3.53564ZM3.92927 9.89961L3.22216 9.1925L2.51505 9.89961L3.22216 10.6067L3.92927 9.89961ZM6.05059 13.4351L6.27545 14.4095L6.5549 14.345L6.75769 14.1422L6.05059 13.4351ZM2.2339 14.3159L2.45876 15.2903H2.45876L2.2339 14.3159ZM1.63428 13.7163L0.659888 13.4914H0.659888L1.63428 13.7163ZM2.51505 9.89961L1.80795 9.1925L1.60515 9.39529L1.54066 9.67475L2.51505 9.89961ZM10.6468 1.76788L9.93967 1.06077V1.06077L10.6468 1.76788ZM3.34891 10.7335L4.05601 10.0264L2.78022 8.75056L2.37451 10.5086L3.34891 10.7335ZM2.78856 13.1616L1.81417 12.9368L1.45439 14.4958L3.01342 14.136L2.78856 13.1616ZM5.21673 12.6013L5.44159 13.5757L7.19963 13.17L5.92384 11.8942L5.21673 12.6013ZM11.0003 2.82854L10.2932 2.12143L9.58612 2.82854L10.2932 3.53564L11.0003 2.82854ZM11.3539 2.47498L12.061 3.18209L11.3539 2.47498ZM13.1217 4.94986L12.4145 5.65697L13.1217 6.36407L13.8288 5.65697L13.1217 4.94986ZM13.4752 4.5963L14.1823 5.30341L13.4752 4.5963ZM11.7074 4.94986L5.34348 11.3138L6.75769 12.728L13.1217 6.36407L11.7074 4.94986ZM9.58612 4.24275L11.7074 6.36407L13.1217 4.94986L11.0003 2.82854L9.58612 4.24275ZM4.63637 10.6067L11.0003 4.24275L9.58612 2.82854L3.22216 9.1925L4.63637 10.6067ZM3.22216 10.6067L5.34348 12.728L6.75769 11.3138L4.63637 9.1925L3.22216 10.6067ZM5.82573 12.4607L2.00904 13.3415L2.45876 15.2903L6.27545 14.4095L5.82573 12.4607ZM2.00905 13.3415C2.36908 13.2584 2.69176 13.5811 2.60867 13.9411L0.659888 13.4914C0.410633 14.5715 1.37865 15.5396 2.45876 15.2903L2.00905 13.3415ZM2.60867 13.9411L3.48944 10.1245L1.54066 9.67475L0.659888 13.4914L2.60867 13.9411ZM11.3539 2.47498C11.9397 1.8892 12.8894 1.8892 13.4752 2.47498L14.8894 1.06077C13.5226 -0.306064 11.3065 -0.306065 9.93967 1.06077L11.3539 2.47498ZM13.4752 2.47498C14.061 3.06077 14.061 4.01052 13.4752 4.5963L14.8894 6.01052C16.2563 4.64368 16.2563 2.42761 14.8894 1.06077L13.4752 2.47498ZM2.37451 10.5086L1.81417 12.9368L3.76295 13.3865L4.3233 10.9583L2.37451 10.5086ZM3.01342 14.136L5.44159 13.5757L4.99187 11.6269L2.5637 12.1872L3.01342 14.136ZM5.92384 11.8942L4.05601 10.0264L2.6418 11.4406L4.50962 13.3084L5.92384 11.8942ZM11.7074 3.53564L12.061 3.18209L10.6468 1.76788L10.2932 2.12143L11.7074 3.53564ZM13.8288 4.24275L11.7074 2.12143L10.2932 3.53564L12.4145 5.65697L13.8288 4.24275ZM12.7681 3.8892L12.4145 4.24275L13.8288 5.65697L14.1823 5.30341L12.7681 3.8892ZM12.7681 3.18209C12.9634 3.37735 12.9634 3.69394 12.7681 3.8892L14.1823 5.30341C15.1586 4.3271 15.1586 2.74419 14.1823 1.76788L12.7681 3.18209ZM12.061 3.18209C12.2563 2.98683 12.5728 2.98683 12.7681 3.18209L14.1823 1.76788C13.206 0.791567 11.6231 0.791567 10.6468 1.76788L12.061 3.18209ZM13.4752 4.5963L5.34348 12.728L6.75769 14.1422L14.8894 6.01052L13.4752 4.5963ZM3.22216 10.6067L11.3539 2.47498L9.93967 1.06077L1.80795 9.1925L3.22216 10.6067Z" fill="#676879" mask="url(#path-1-inside-1)"/>
</svg>
